<svg xmlns="http://www.w3.org/2000/svg" xmlns:xlink="http://www.w3.org/1999/xlink" version="1.1" x="0px" y="0px" viewBox="0 0 100 125" enable-background="new 0 0 100 100" xml:space="preserve"><path d="M99.251,48.167L58.6,7.516c-0.999-1.001-2.62-1.001-3.62,0l-6.859,6.859c-1.001,1-0.999,2.62,0,3.621l24.58,24.58H2.56  c-1.414,0-2.56,1.146-2.56,2.56v9.702c0,1.414,1.146,2.561,2.56,2.561H72.7L48.094,82.004c-1,1-1,2.621,0,3.621l6.859,6.859  c1,1.001,2.621,1,3.621,0l40.677-40.677c0.503-0.502,0.751-1.162,0.749-1.821C100.002,49.329,99.754,48.668,99.251,48.167z"/><text x="0" y="115" fill="#000000" font-size="5px" font-weight="bold" font-family="'Helvetica Neue', Helvetica, Arial-Unicode, Arial, Sans-serif">Created by Mateo Zlatar</text><text x="0" y="120" fill="#000000" font-size="5px" font-weight="bold" font-family="'Helvetica Neue', Helvetica, Arial-Unicode, Arial, Sans-serif">from the Noun Project</text></svg>